# xmcd
#
# Track frame offsets:
#	150
#	15787
#	27221
#	37806
#	48542
#	60144
#	74510
#	88989
#	99396
#	111488
#	124640
#	136181
#	148883
#	162135
#	177049
#	192227
#	207046
#	220501
#	234005
#	248462
#	261415
#
# Disc length: 3680 seconds
#
# Revision: 0
# Processed by: cddbd v1.5.2PL0 Copyright (c) Steve Scherf et al.
# Submitted via: EasyCDDAExtractor 15.2.5.1
#
DISCID=110e5e15
DTITLE=Tadeusz Faliszewski - Tylko przeboje
DYEAR=2009
DGENRE=Oldies
TTITLE0=Ostatni raz
TTITLE1=W mym ogrodku
TTITLE2=Nie kladz palca
TTITLE3=Tylko jedno slowo kocham
TTITLE4=W malek kawiarence
TTITLE5=Milosc ten jedyny moj temat
TTITLE6=I nic wiecej
TTITLE7=Moje sloneczko
TTITLE8=Gwiazdy to czy oczy Twe
TTITLE9=Idzie wiosna
TTITLE10=Ty milosc i wiosna
TTITLE11=Katiusza
TTITLE12=Czy Pani tanczy rumbe
TTITLE13=Serce matki
TTITLE14=Jesienne roze
TTITLE15=Manuela
TTITLE16=Wieden miasto milosci
TTITLE17=Dla Pani wszystko
TTITLE18=Teskno mi
TTITLE19=Piekna ale zla
TTITLE20=Marionetki
EXTD=
EXTT0=
EXTT1=
EXTT2=
EXTT3=
EXTT4=
EXTT5=
EXTT6=
EXTT7=
EXTT8=
EXTT9=
EXTT10=
EXTT11=
EXTT12=
EXTT13=
EXTT14=
EXTT15=
EXTT16=
EXTT17=
EXTT18=
EXTT19=
EXTT20=
PLAYORDER=
